<svg xmlns="http://www.w3.org/2000/svg" width="29.256" height="29.256" viewBox="0 0 29.256 29.256"><defs><style>.a{fill:#808285;}</style></defs><path class="a" d="M6.159,977.4l2.6,2.6a3.67,3.67,0,0,1,5.191,5.191l2.6,2.6,12.5-12.5-1.887-1.887.944-.944,1.887,1.887,5.426-5.426-2.6-2.6a3.67,3.67,0,1,1-5.191-5.191l-2.6-2.6-5.426,5.426,1.887,1.888-.944.944-1.887-1.888-12.5,12.5Zm9.437-5.662,3.082,1.312,2.566-2.271-.361,3.37,2.89,1.681-3.31.774-.774,3.31-1.681-2.89-3.369.361,2.271-2.566Zm5.9-4.011.944-.944,1.887,1.887-.944.944Zm2.831,2.831.944-.944,1.887,1.888-.944.944Z" transform="translate(-6.159 -958.522)"/></svg>