<svg xmlns="http://www.w3.org/2000/svg" width="51.224" height="71.714" viewBox="0 0 51.224 71.714"><defs><style>.ya{fill:#ffeb00;}</style></defs><g transform="translate(0 0)"><path class="ya" d="M54.663,2H8.561A2.561,2.561,0,0,0,6,4.561V63.469A10.245,10.245,0,0,0,16.245,73.714H52.1a2.561,2.561,0,0,0,1.409-4.687,3.586,3.586,0,0,1-1.588-3,3.534,3.534,0,0,1,1.1-2.561h1.639a2.561,2.561,0,0,0,2.561-2.561V4.561A2.561,2.561,0,0,0,54.663,2ZM52.1,58.347H21.367V7.122H52.1ZM11.122,7.122h5.122V58.347H11.122ZM47.184,68.592H16.245a5.122,5.122,0,0,1-5.122-5.122H47.184A8.734,8.734,0,0,0,47.184,68.592ZM29.051,27.612H44.418a2.561,2.561,0,0,0,2.561-2.561V14.806a2.561,2.561,0,0,0-2.561-2.561H29.051a2.561,2.561,0,0,0-2.561,2.561V25.051A2.561,2.561,0,0,0,29.051,27.612Zm2.561-10.245H41.857V22.49H31.612Z" transform="translate(-6 -2)"/></g></svg>