<svg xmlns="http://www.w3.org/2000/svg" width="150.203" height="21.178" viewBox="0 0 150.203 21.178">
  <g id="Group_366" data-name="Group 366" transform="translate(0 0)">
    <path id="Path_1760" data-name="Path 1760" d="M553.573,540.995v20.711h-4.549v-1.4a5.938,5.938,0,0,1-4.409,1.866c-3.441,0-5.548-2.744-5.548-6.228,0-4.939,3.3-7.763,7.628-7.763a11.887,11.887,0,0,1,2.218.247v-7.433Zm-7.266,17.336a3.894,3.894,0,0,0,2.606-1.151v-5.048a6.909,6.909,0,0,0-1.58-.165c-2.3,0-3.579,1.316-3.579,3.429C543.754,557.262,544.781,558.331,546.307,558.331Z" transform="translate(-539.067 -540.995)" fill="#fff"/>
    <path id="Path_1761" data-name="Path 1761" d="M558.045,544.7v4.115a7.886,7.886,0,0,0-1.747-.191,6.755,6.755,0,0,0-3.827,1.178v8.177h-4.66V544.833h4.578v1.4a6.955,6.955,0,0,1,4.16-1.7A5.871,5.871,0,0,1,558.045,544.7Z" transform="translate(-529.838 -537.263)" fill="#fff"/>
    <path id="Path_1762" data-name="Path 1762" d="M555.792,551.694c0-4.171,2.884-7.217,7.406-7.217a8.494,8.494,0,0,1,3.854.851v3.7a7.146,7.146,0,0,0-2.968-.6c-2.3,0-3.494,1.209-3.494,3.128,0,1.893,1.221,2.964,3.357,2.964a7.909,7.909,0,0,0,3.217-.66v3.6a9.681,9.681,0,0,1-4.742,1.042C558.176,558.5,555.792,555.727,555.792,551.694Z" transform="translate(-521.414 -537.32)" fill="#fff"/>
    <path id="Path_1763" data-name="Path 1763" d="M562.256,551.474c0-3.977,3.051-7,7.515-7,4.715,0,7.546,2.853,7.546,7,0,3.951-3,7.024-7.546,7.024C565.113,558.5,562.256,555.589,562.256,551.474Zm10.372,0c0-2.084-1-3.155-2.857-3.155a2.832,2.832,0,0,0-2.855,3.155c0,2.031,1.026,3.155,2.855,3.155C571.52,554.629,572.628,553.423,572.628,551.474Z" transform="translate(-514.591 -537.32)" fill="#fff"/>
    <path id="Path_1764" data-name="Path 1764" d="M584.837,550.816v7.215h-4.688v-6.475c0-2.058-.664-2.826-2.247-2.826a4.268,4.268,0,0,0-2.5.933v8.368H570.72V544.89H575.3v1.371a7.552,7.552,0,0,1,4.549-1.784C583.257,544.477,584.837,546.563,584.837,550.816Z" transform="translate(-505.657 -537.32)" fill="#fff"/>
    <path id="Path_1765" data-name="Path 1765" d="M578.83,557.3v-3.293a14.3,14.3,0,0,0,5.379,1.042c1.554,0,2.608-.109,2.608-.878,0-.686-.417-.906-2.553-1.1-3.938-.3-5.268-1.7-5.268-4.28,0-2.882,2.939-4.335,6.407-4.335a12.189,12.189,0,0,1,5.048,1.015v3.211a14.572,14.572,0,0,0-4.549-.851c-1.25,0-2.413.054-2.413.822,0,.687.526.851,2.524,1.071,3.716.384,5.3,1.755,5.3,4.417,0,2.771-2.136,4.362-6.547,4.362A14.594,14.594,0,0,1,578.83,557.3Z" transform="translate(-497.097 -537.334)" fill="#fff"/>
    <path id="Path_1766" data-name="Path 1766" d="M600.232,544.678v13.141h-4.549v-1.371a7.147,7.147,0,0,1-4.467,1.837c-3.41,0-4.993-2.113-4.993-6.366v-7.242h4.689v6.557c0,2.058.582,2.771,2.162,2.771a4.189,4.189,0,0,0,2.469-.933v-8.395Z" transform="translate(-489.293 -537.108)" fill="#fff"/>
    <path id="Path_1767" data-name="Path 1767" d="M594.572,540.995h4.687V556.3c0,1.1.277,2.029,1.694,2.029a5.155,5.155,0,0,0,1.663-.273v3.54a8.306,8.306,0,0,1-3.494.576c-3.217,0-4.549-1.975-4.549-5.1Z" transform="translate(-480.482 -540.995)" fill="#fff"/>
    <path id="Path_1768" data-name="Path 1768" d="M609.568,555.63v3.622a8.938,8.938,0,0,1-3.827.8c-4.882,0-6.325-2.882-6.325-6.8V543.009H604.1v3.43h5.326v3.538H604.1v3.457c0,1.755.471,2.744,2.8,2.744A6.322,6.322,0,0,0,609.568,555.63Z" transform="translate(-475.369 -538.869)" fill="#fff"/>
    <ellipse id="Ellipse_27" data-name="Ellipse 27" cx="2.882" cy="2.738" rx="2.882" ry="2.738" transform="translate(26.595 15.207)" fill="#fcaf17"/>
    <path id="Path_1769" data-name="Path 1769" d="M619.418,552.995v-7.613a18.017,18.017,0,0,0-5.254-.9c-5.492,0-8.931,2.853-8.931,7.766,0,3.511,2.107,6.255,5.352,6.255a5.853,5.853,0,0,0,4.354-1.867v1.4h4.493v-5.036Zm-4.617.51a3.708,3.708,0,0,1-2.5,1.124c-1.5,0-2.387-1.071-2.387-2.935,0-2.113,1.3-3.431,3.745-3.431.389,0,.777.029,1.137.056Z" transform="translate(-469.229 -537.32)" fill="#fff"/>
  </g>
</svg>
