<svg xmlns="http://www.w3.org/2000/svg" width="50.516" height="86.213" viewBox="0 0 50.516 86.213"><defs><style>.ta{fill:#ffeb00;}</style></defs><path class="ta" d="M-75.1.38A15.172,15.172,0,0,0-90.25,15.535V73.469A7.243,7.243,0,0,0-83.016,80.7h.646v3.364a2.526,2.526,0,0,0,2.526,2.526,2.526,2.526,0,0,0,2.526-2.526V80.7h24.651v3.364a2.526,2.526,0,0,0,2.526,2.526,2.526,2.526,0,0,0,2.526-2.526V80.7h.646a7.244,7.244,0,0,0,7.235-7.235V15.535A15.172,15.172,0,0,0-54.889.38Zm0,5.052h20.207a10.115,10.115,0,0,1,10.1,10.1V30.513H-85.2V15.535a10.114,10.114,0,0,1,10.1-10.1Zm22.731,9.926a2.526,2.526,0,0,0-2.526,2.526v5.052a2.526,2.526,0,0,0,2.526,2.526,2.526,2.526,0,0,0,2.526-2.526V17.883A2.526,2.526,0,0,0-52.364,15.357ZM-85.2,35.564h40.413v37.9a2.186,2.186,0,0,1-2.184,2.183H-83.016A2.186,2.186,0,0,1-85.2,73.469Zm32.834,5.052a2.526,2.526,0,0,0-2.526,2.526v10.1a2.526,2.526,0,0,0,2.526,2.526,2.526,2.526,0,0,0,2.526-2.526v-10.1A2.526,2.526,0,0,0-52.364,40.616Z" transform="translate(90.25 -0.38)"/></svg>