<svg xmlns="http://www.w3.org/2000/svg" width="64.96" height="64.96" viewBox="0 0 64.96 64.96"><defs><style>.a,.d{fill:#fff;}.a{stroke:#0a53a6;stroke-width:2px;}.b{fill:#50b848;}.c{fill:#0a53a6;}.e{stroke:none;}.f{fill:none;}</style></defs><g class="a"><circle class="e" cx="32.48" cy="32.48" r="32.48"/><circle class="f" cx="32.48" cy="32.48" r="31.48"/></g><g transform="translate(14.828 15.533)"><g transform="translate(0 0)"><path class="b" d="M4956.562,3567.16a5.186,5.186,0,1,0-5.187,5.187,5.2,5.2,0,0,0,5.187-5.187" transform="translate(-4945.42 -3551.245)"/><path class="c" d="M4943.33,3430.934a3.678,3.678,0,0,0-.777-.266,2.17,2.17,0,0,0-2.058-1.484h-.266a1.069,1.069,0,0,0-1.054,1.044v2.262a1.076,1.076,0,0,0,1.054,1.044h.266a2.157,2.157,0,0,0,1.975-1.28,1.039,1.039,0,0,1,.8.982v7.257a8.362,8.362,0,0,1-16.724,0v-7.277a1.04,1.04,0,0,1,.8-.983,2.157,2.157,0,0,0,1.975,1.28h.266a1.071,1.071,0,0,0,1.055-1.044v-2.252a1.078,1.078,0,0,0-1.055-1.044h-.266a2.177,2.177,0,0,0-2.057,1.484,3.7,3.7,0,0,0-.777.266,2.443,2.443,0,0,0-1.485,2.282v7.256a9.908,9.908,0,0,0,9.129,9.866v6.182a8.362,8.362,0,1,1-16.723,0v-5.527a5.946,5.946,0,1,0-1.535,0v5.547a9.9,9.9,0,1,0,19.794,0v-6.182a9.908,9.908,0,0,0,9.129-9.866v-7.267a2.418,2.418,0,0,0-1.464-2.282m-2.609,1v-1.177a.636.636,0,0,1,.409.593.623.623,0,0,1-.409.584m-11.617-1.177v1.177a.638.638,0,0,1-.409-.594.61.61,0,0,1,.409-.583m-16.866,14.328a4.411,4.411,0,1,1,4.411,4.411,4.411,4.411,0,0,1-4.411-4.411" transform="translate(-4910.692 -3429.173)"/><path class="d" d="M4950.837,3564.3a2.323,2.323,0,1,0-2.323,2.323,2.328,2.328,0,0,0,2.323-2.323" transform="translate(-4942.557 -3548.381)"/><path class="c" d="M4943.33,3430.934a3.678,3.678,0,0,0-.777-.266,2.17,2.17,0,0,0-2.058-1.484h-.266a1.069,1.069,0,0,0-1.054,1.044v2.262a1.076,1.076,0,0,0,1.054,1.044h.266a2.157,2.157,0,0,0,1.975-1.28,1.039,1.039,0,0,1,.8.982v7.257a8.362,8.362,0,0,1-16.724,0v-7.277a1.04,1.04,0,0,1,.8-.983,2.157,2.157,0,0,0,1.975,1.28h.266a1.071,1.071,0,0,0,1.055-1.044v-2.252a1.078,1.078,0,0,0-1.055-1.044h-.266a2.177,2.177,0,0,0-2.057,1.484,3.7,3.7,0,0,0-.777.266,2.443,2.443,0,0,0-1.485,2.282v7.256a9.908,9.908,0,0,0,9.129,9.866v6.182a8.362,8.362,0,1,1-16.723,0v-5.527a5.946,5.946,0,1,0-1.535,0v5.547a9.9,9.9,0,1,0,19.794,0v-6.182a9.908,9.908,0,0,0,9.129-9.866v-7.267a2.418,2.418,0,0,0-1.464-2.282m-2.609,1v-1.177a.636.636,0,0,1,.409.593.623.623,0,0,1-.409.584m-11.617-1.177v1.177a.638.638,0,0,1-.409-.594.61.61,0,0,1,.409-.583m-16.866,14.328a4.411,4.411,0,1,1,4.411,4.411,4.411,4.411,0,0,1-4.411-4.411" transform="translate(-4910.691 -3429.173)"/></g></g></svg>