<svg xmlns="http://www.w3.org/2000/svg" xmlns:xlink="http://www.w3.org/1999/xlink" width="116.957" height="158.49" viewBox="0 0 116.957 158.49">
  <defs>
    <clipPath id="clip-path">
      <rect width="116.957" height="158.49" fill="none"/>
    </clipPath>
  </defs>
  <g id="Component_2" data-name="Component 2" clip-path="url(#clip-path)">
    <g id="Group_568" data-name="Group 568" transform="translate(20.371 120.078)">
      <g id="Group_567" data-name="Group 567">
        <g id="Group_560" data-name="Group 560" transform="translate(0 10.257)">
          <g id="Group_559" data-name="Group 559">
            <path id="Path_1812" data-name="Path 1812" d="M501.4-279.726q.019.021.182.406l2.878,6.831,3.1,7.277q.061-.121.872-2.027l2.7-6.142,2.8-6.345H518.2l-4.338,9.912-3.628,8.291-3.75,8.574-.608,1.378H501.6l-.02-.02,3.851-8.717-3.973-9.081-4.054-9.2-.487-1.135Z" transform="translate(-496.919 279.726)" fill="#fff"/>
          </g>
        </g>
        <g id="Group_562" data-name="Group 562" transform="translate(22.717 9.953)">
          <g id="Group_561" data-name="Group 561">
            <path id="Path_1813" data-name="Path 1813" d="M545.929-280.249a7.666,7.666,0,0,1,5.8,2.574V-279.9l.061-.041h3.831l.041.041v19.338l-.041.041h-3.831l-.061-.041v-1.966a7.537,7.537,0,0,1-5.838,2.493h-.02a9.612,9.612,0,0,1-7.541-3.588,10.168,10.168,0,0,1-2.311-6.506v-.02a10.227,10.227,0,0,1,3.446-7.7A9.808,9.808,0,0,1,545.929-280.249Zm-6,10.095a6.271,6.271,0,0,0,2.757,5.25,5.665,5.665,0,0,0,2.919.933h.446a5.721,5.721,0,0,0,3.77-1.581,6.334,6.334,0,0,0,1.905-4.581v-.02a6.156,6.156,0,0,0-2.756-5.23,5.716,5.716,0,0,0-3-.933h-.324a5.767,5.767,0,0,0-4.4,2.25A6.676,6.676,0,0,0,539.929-270.154Z" transform="translate(-536.017 280.249)" fill="#fff"/>
          </g>
        </g>
        <g id="Group_564" data-name="Group 564" transform="translate(47.878)">
          <g id="Group_563" data-name="Group 563">
            <path id="Path_1814" data-name="Path 1814" d="M579.341-297.379h3.872l.02.02v29.635l-.02.02h-3.872l-.02-.02v-29.635Z" transform="translate(-579.321 297.379)" fill="#fff"/>
          </g>
        </g>
        <g id="Group_566" data-name="Group 566" transform="translate(56.073 9.953)">
          <g id="Group_565" data-name="Group 565">
            <path id="Path_1815" data-name="Path 1815" d="M613.069-270.114a10.373,10.373,0,0,0-.709-3.791c-.047-.131-.11-.261-.166-.392-.024-.065-.048-.131-.077-.2-.01-.022-.023-.044-.033-.066-.072-.156-.153-.311-.237-.465-.036-.068-.074-.136-.113-.2-.076-.134-.15-.267-.235-.4-.025-.041-.046-.081-.071-.121a8.874,8.874,0,0,0-.791-1.054,6.6,6.6,0,0,0-.934-.96,5.536,5.536,0,0,0-.424-.358h0c-.2-.163-.411-.329-.646-.505a9.671,9.671,0,0,0-5.291-1.622h-.182a9.174,9.174,0,0,0-2.051.235l-.1.027c-.178.043-.356.09-.532.144-.079.024-.157.051-.235.077-.137.045-.273.093-.409.145-.081.031-.162.065-.243.1q-.229.095-.456.2l-.117.056c-.3.144-.589.3-.88.475a10.362,10.362,0,0,0-1.034.75,6.156,6.156,0,0,0-.675.619l-.056.051c-.044.048-.082.091-.124.137-.134.143-.273.3-.423.471-.039.049-.074.1-.113.146-.146.177-.273.34-.374.483-.036.053-.066.1-.1.157a10.12,10.12,0,0,0-.567.9,10.409,10.409,0,0,0-1.236,4.906,10.372,10.372,0,0,0,.709,3.791c.047.131.11.26.166.391.024.066.048.131.077.2.01.022.023.045.034.066.071.156.153.31.236.464.036.068.075.137.113.206.076.133.151.267.235.4.025.041.046.081.071.121a8.928,8.928,0,0,0,.791,1.055,6.66,6.66,0,0,0,.934.959c.164.149.307.271.425.358l0,0c.2.162.41.328.646.5a9.664,9.664,0,0,0,5.29,1.622h.182a9.164,9.164,0,0,0,2.051-.235l.1-.027c.178-.043.356-.09.533-.144.078-.024.156-.051.235-.077.137-.046.273-.093.408-.145.081-.031.162-.065.243-.1.153-.063.3-.131.456-.2l.117-.057c.3-.144.589-.3.879-.475a10.2,10.2,0,0,0,1.034-.75,6.225,6.225,0,0,0,.674-.619l.056-.051c.044-.048.082-.091.124-.137.134-.144.273-.3.423-.471.04-.049.074-.1.113-.145.146-.177.273-.34.375-.483.036-.052.066-.1.1-.157a10.038,10.038,0,0,0,.567-.9A10.409,10.409,0,0,0,613.069-270.114Zm-3.918.106c0,.185-.017.369-.036.552-.009.08-.015.161-.027.241a6.1,6.1,0,0,1-.123.617c-.015.06-.033.12-.049.18a6.439,6.439,0,0,1-.219.647c-.02.048-.044.094-.065.142-.056.131-.123.262-.188.392a6.44,6.44,0,0,1-.463.752,1.51,1.51,0,0,1-.1.16q-.212.269-.493.571l-.083.086c-.107.1-.216.2-.325.292-.062.052-.123.106-.186.155-.044.035-.089.066-.134.1a5.907,5.907,0,0,1-1.839.944h0c-.163.049-.328.089-.494.122-.143.028-.289.048-.436.064-.029,0-.056.009-.084.012-.182.018-.367.026-.555.027a5.59,5.59,0,0,1-.67-.042l-.045-.005a5.811,5.811,0,0,1-1.989-.65c-.07-.039-.139-.083-.209-.125a4.412,4.412,0,0,1-.463-.332,4.18,4.18,0,0,1-.933-.831,6.276,6.276,0,0,1-1.6-4.193c0-.05,0-.1.005-.149,0-.185.017-.37.036-.553.009-.08.016-.161.027-.241a6.152,6.152,0,0,1,.123-.617c.015-.06.033-.12.049-.18a6.421,6.421,0,0,1,.218-.647c.02-.048.044-.094.065-.142.056-.131.123-.262.189-.392a6.426,6.426,0,0,1,.462-.752,1.5,1.5,0,0,1,.1-.16q.212-.268.493-.571l.083-.086c.107-.1.216-.2.325-.292.062-.052.124-.106.187-.155.044-.035.088-.066.132-.1a5.768,5.768,0,0,1,2.335-1.066c.143-.027.289-.048.436-.064.028,0,.055-.01.084-.012.182-.018.367-.026.555-.027a5.6,5.6,0,0,1,.671.042l.045.005a5.831,5.831,0,0,1,1.989.65c.07.039.139.082.208.125a4.292,4.292,0,0,1,.464.332,4.144,4.144,0,0,1,.932.831,6.28,6.28,0,0,1,1.6,4.193C609.156-270.107,609.152-270.058,609.151-270.008Z" transform="translate(-593.427 280.249)" fill="#fff"/>
          </g>
        </g>
      </g>
    </g>
    <path id="Path_1816" data-name="Path 1816" d="M289.768-289.419c.056,13.889,6.226,26.5,17.2,33.659,12.552,8.192,28.416,7.24,42.522-.946,12.692,1.627,25.106-1.79,32.938-10.521,7.229-8.058,9.128-19.132,7.1-30.571,8.482-14.169,10.1-30.587,1.97-43.228-8.773-13.635-26.477-19.223-44.3-15.94-12.419-7.016-26.231-8.29-38.306-2.078a36.832,36.832,0,0,0-14.871,14.2,34.562,34.562,0,0,0-10.655,12.8C276.87-318.546,279.623-302.446,289.768-289.419Z" transform="translate(-279.858 363.045)" fill="#f6e200"/>
    <path id="Path_1817" data-name="Path 1817" d="M296.409-296.271a53.851,53.851,0,0,0-1.156,11.235c5.442,6.987,15.147,17.678,28.456,22.969,6.631,4.351,23.621,8.764,31.267,9.743,7.547-4.38,19.205-16.565,21.62-21.976a60.711,60.711,0,0,0,18.416-19.116c-1.714-9.657-10.331-28.814-17.994-37.4-6.8-11.371-16.892-19.906-24.338-21.767a60.214,60.214,0,0,0-14.741,4.773c-14.591-2.863-28.382-.125-38.436,7.346C292.353-328.382,290.654-311.985,296.409-296.271Z" transform="translate(-285.344 358.662)" fill="#a4c422"/>
    <path id="Path_1818" data-name="Path 1818" d="M326.2-258.625c18.955,2.615,40.69-1.632,52.887-12.233,8.241-10.512,9.648-43.433.421-56.516-9.212-9.836-29.016-15.942-39.08-16.995-11.9,4.171-34.006,22.167-41.529,51.539C302.451-281.049,315.593-265.319,326.2-258.625Z" transform="translate(-287.837 355.22)" fill="#54ab34"/>
    <path id="Path_1819" data-name="Path 1819" d="M382.736-305.226a7.4,7.4,0,0,0-10.1,2.707l-4.926,8.532-.108.187a1.712,1.712,0,0,1-1.441.787,1.714,1.714,0,0,1-1.439-.783l-5.037-8.724a7.4,7.4,0,0,0-10.1-2.707,7.392,7.392,0,0,0-3.441,8.31c.066.245.147.489.238.73.032.084.062.168.1.251s.073.167.111.249c.089.189.181.378.288.562l10.745,18.611h0l2.135,3.7a7.337,7.337,0,0,0,2.092,2.3c.211.15.156.315-.089.245a7.364,7.364,0,0,1-4.358-3.405l-.709-1.229-1.861,3.224a7.4,7.4,0,0,0,2.706,10.1,7.4,7.4,0,0,0,10.1-2.707l4.926-8.532,12.88-22.308A7.4,7.4,0,0,0,382.736-305.226Z" transform="translate(-307.524 339.236)" fill="#fff"/>
  </g>
</svg>
