<svg xmlns="http://www.w3.org/2000/svg" width="23.885" height="30.067" viewBox="0 0 23.885 30.067"><defs><style>.a{fill:#808285;}</style></defs><g transform="translate(-203.792 -2667.919)"><g transform="translate(-112.985 2648.353)"><g transform="translate(316.777 19.567)"><path class="a" d="M21.767,14.12V28.233a8.107,8.107,0,0,0,3.886,6.309L31.2,37.336l5.545-2.794a8.108,8.108,0,0,0,3.887-6.309V14.12A28.506,28.506,0,0,0,21.767,14.12Z" transform="translate(-19.256 -10.004)"/><path class="a" d="M37.746,7.235a30.971,30.971,0,0,0-23.1,0,.627.627,0,0,0-.392.581V23.229a10.658,10.658,0,0,0,5.267,8.552L25.912,35a.63.63,0,0,0,.564,0l6.393-3.22a10.657,10.657,0,0,0,5.268-8.552V7.816A.627.627,0,0,0,37.746,7.235ZM36.88,23.229A9.254,9.254,0,0,1,32.3,30.657l-5.827,2.936a.622.622,0,0,1-.564,0l-5.828-2.936a9.253,9.253,0,0,1-4.575-7.427V8.677a.626.626,0,0,1,.409-.587,29.736,29.736,0,0,1,20.553,0,.626.626,0,0,1,.409.587V23.229Z" transform="translate(-14.252 -5)"/></g></g></g></svg>