<svg xmlns="http://www.w3.org/2000/svg" viewBox="0 0 116.96 112.97"><defs><style>.cls-1{fill:#f6e200;}.cls-2{fill:#a4c422;}.cls-3{fill:#54ab34;}.cls-4{fill:#fff;}</style></defs><title>yalo-symbol</title><g id="Camada_2" data-name="Camada 2"><g id="Camada_1-2" data-name="Camada 1"><path id="Path_1816" data-name="Path 1816" class="cls-1" d="M9.91,73.63c.05,13.88,6.22,26.5,17.2,33.65,12.55,8.2,28.41,7.24,42.52-.94,12.69,1.63,25.11-1.79,32.94-10.52,7.23-8.06,9.13-19.13,7.1-30.57,8.48-14.17,10.1-30.59,2-43.23C102.87,8.38,85.16,2.8,67.34,6.08,54.92-.94,41.11-2.21,29,4A36.89,36.89,0,0,0,14.16,18.2,34.57,34.57,0,0,0,3.51,31C-3,44.5-.24,60.6,9.91,73.63Z"/><path id="Path_1817" data-name="Path 1817" class="cls-2" d="M11.06,62.39A54.35,54.35,0,0,0,9.91,73.63c5.44,7,15.14,17.67,28.45,23C45,101,62,105.36,69.63,106.34c7.55-4.38,19.21-16.57,21.62-22a60.78,60.78,0,0,0,18.42-19.11c-1.72-9.66-10.33-28.82-18-37.4C84.87,16.47,74.78,7.94,67.33,6.08a60.34,60.34,0,0,0-14.74,4.77C38,8,24.21,10.73,14.16,18.2,7,30.28,5.31,46.68,11.06,62.39Z"/><path id="Path_1818" data-name="Path 1818" class="cls-3" d="M38.36,96.59c19,2.62,40.69-1.63,52.89-12.23,8.24-10.51,9.65-43.43.42-56.51-9.21-9.84-29-15.95-39.08-17C40.69,15,18.58,33,11.06,62.39,14.61,74.17,27.75,89.9,38.36,96.59Z"/><path id="Path_1819" data-name="Path 1819" class="cls-4" d="M75.21,34a7.39,7.39,0,0,0-10.1,2.71l-4.93,8.53-.1.19a1.72,1.72,0,0,1-1.44.78,1.69,1.69,0,0,1-1.44-.78l-5-8.72a7.39,7.39,0,0,0-13.54,5.6,6.91,6.91,0,0,0,.24.73,2.6,2.6,0,0,0,.1.25,2.72,2.72,0,0,0,.11.25,5.93,5.93,0,0,0,.29.56L50.1,62.72h0l2.14,3.7a7.19,7.19,0,0,0,2.09,2.3c.21.15.15.32-.09.25a7.4,7.4,0,0,1-4.36-3.41l-.71-1.23-1.86,3.23A7.39,7.39,0,1,0,60.12,75L65,66.42,77.92,44.11A7.39,7.39,0,0,0,75.21,34Z"/></g></g></svg>